<svg xmlns="http://www.w3.org/2000/svg" width="358.827" height="87.393" viewBox="0 0 336.4 81.931" id="svg2"><defs id="defs4"><clipPath id="clipPath56"><path d="M252.805 80.637a173.055 173.055 0 0 0-29.52 2.539c-4.805 1.953-9.535 4.097-14.433 5.812-3.637 1.278-5.524 1.711-6.692 1.711a3.11 3.11 0 0 1-1.187-.207c-8.778 5.13-16.899 12.055-24.188 20.52 7.68-1.063 16.305-1.973 25.746-2.696.711-6.144 9.778-12.28 17.41-13.668 1.129-.203 2.196-.3 3.184-.3 7.609 0 10.824 5.734 5.891 12.25 3.136-1.282 6.035-1.825 8.629-1.825 7.265 0 12.14 4.29 13.246 8.723l.277 2.43c-37.402.234-63.656 2.031-90.637 6.195 13.598-17.805 27.153-27.484 38.567-32.91-25.063 8.238-47.614 22.074-66.16 40.019 5.691-2.566 14.003-4.652 27.593-7.109-27.508 39.117-33.289 75.516-33.59 117.734 13.473-4.554 17.168-24.601 13.688-35.722 1.258.484 2.543.711 3.84.711 12.023 0 24.75-19.496 19.621-32.969-1.695-4.449-5.137-6.82-9.281-6.82-2.266 0-4.739.707-7.254 2.168 3.843-13.032 8.836-24.938 14.793-35.489 9.132-1.257 19.386-2.339 30.613-3.187-8.723 10.734-2.231 19.598 9.098 19.598.375 0 .754-.008 1.14-.032 10.321-.527 23.981-9.109 21.059-20.84 2.512 1.133 5.488 1.711 8.535 1.711 8.234 0 16.973-4.211 18.359-13.043-.035 1.997-.07 4.063-.101 6.2.312-12.586.816-22.567 1.754-41.504m-108.317 54.086c-7.578 1.531-13.867 3.226-18.695 5.027-.141.23-12.328 21.535-20.129 24.129l-.434.051c-15.812 26.058-24.925 56.617-24.925 89.258 0 .554.004 1.097.007 1.652.692-.742 1.797-1.695 3.516-2.777 3.668-2.301 9.07-4.743 16.203-6.579 8.836-2.265 18.098-4.117 26.739-5.597l.171-.032h-.031c-13.32 0-14.824-19.128-9.297-31.867-2.398 1.813-4.316 2.485-5.847 2.485-3.157 0-4.653-2.868-5.254-4.528-4.012-11.047 7.203-35.929 17.437-35.929.957 0 1.91.218 2.836.687 4.602-13.164 10.574-25.234 17.703-35.98m104.473 96.418c-12.781 0-25.703.437-38.598.957 12.895-.52 25.817-.957 38.598-.957m.68 0h.648-.648m.648 0v0m37.094.621c14.531.578 28.808 1.488 41.687 2.531-13.304-1.113-22.84-1.68-34.496-2.262-2.508-.097-4.898-.187-7.191-.269m-77.051.336l-3.504.14 3.504-.14m142.254 4.402c3.941.43 7.57.855 10.84 1.273a504.044 504.044 0 0 0-10.84-1.273m19.492 2.484l-2.894.024c-9.055 1.191-16.625 16.488-12.641 32.043-2.301-1.59-4.652-2.301-6.949-2.301-10.41 0-19.711 14.602-17.996 28.297.914 7.336 5.05 13.988 12.187 13.988 1.485 0 3.098-.285 4.84-.914-4.113 14.141-9.266 27.524-15.289 39.832-8.981-1.137-18.828-2.086-29.281-2.82 8.625-13.031 1.379-25.215-10.078-25.219-.875 0-1.774.07-2.696.219-9.394 1.508-18.156 11.355-15.715 23.082-2.371-1.645-5.511-2.57-8.765-2.57-7.199 0-14.93 4.55-15.942 16.015-.32-27.418-.519-60.781-.566-96.32.023 20.863.105 49.14.336 76.851.051 6.293.137 12.872.215 19.469.351 29.613.961 59.723 1.543 67.082h1.004c4.14-5.137 11.187-8.176 12.793-8.652-.489-2.102-.121-6.297 7.195-11.594a23.17 23.17 0 0 1 3.293-1.992c4.125-2.156 7.074-2.91 9.183-2.91 3.665 0 4.793 2.277 5.129 3.445l.196.145c3.449-2.536 10.156-7.938 17.57-16.332 4.27-5.129 8.301-9.602 11.332-14.082-6.973-.883-16.223-1.704-25.379-2.356-.515 11.078-8.508 16.609-13.543 18.477-1.433.531-2.746.777-3.926.777-7.879 0-10.074-10.828-5.929-18.746-2.282 1.234-4.672 1.855-6.985 1.855-6.515 0-12.406-4.945-13.476-15.097 34.41.199 57.996 1.722 84.136 5.433h.008c27.758-45.57 34.903-82.98 37.09-125.129m0 0c13.141 4.118 15.352 22.914 8.438 35.731 1.222-.43 2.355-.629 3.406-.629 6.348 0 9.433 7.359 9.101 15.484-.535 12.981-9.523 26.328-17.574 26.328-1.941 0-3.828-.777-5.531-2.527-5.027 14-12.035 28.449-19.391 40.559l2.801.593c6.242 1.211 13.746 4.473 18.277 5.911 1.739-3.383 4.653-11.567 13.586-15.586l.797-.328c.86-.383 1.703-.625 2.453-.625 1.43 0 2.516.875 2.707 3.332.09 1.222-.386 3.75-1.168 5.921-.699 1.95-1.203 3.18-1.976 4.524-1.977 3.754-4.176 7.191-6.274 10.152 26.676-29.953 43.09-69.234 43.672-112.269-1.191-1.125-3.172-2.614-5.238-3.871l-.246-.137c-4.48-2.445-10.832-4.727-18.742-6.809-8.098-2.133-18.106-4.066-29.098-5.754M334.98 364.113c-22.125 33.793-39.585 46.075-62.023 54.93a2722.987 2722.987 0 0 1-17.086 6.676c4.594-.078 9.137-.34 13.637-.77 2.812-.754 4.683-1.476 5.398-1.726a7.906 7.906 0 0 0 2.539-1.45l.09.02c1.735-.191 3.731-.539 6.203-1.254 2.684-.777 7.168-2.422 11.16-4.309 3.993-1.886 9.926-6.125 9.954-8.488-.485-.297-.793-.48-1.379-.48-.52 0-1.25.144-2.516.48 10.277-7.328 25.016-21.125 33.723-31.289 5.976 1.129 14.879 2.41 19.004 3.789.007 0 .011 0 .015.004-.008 0-.011-.004-.015-.004h-.004c-.637 0-13.614 9.778-16.535 15.34l-.075 1.223.496.828.844.824c.481.277 1.219.52 2.332.52 1.645 0 4.102-.524 7.75-2.219a174.04 174.04 0 0 0 23.883-19.211c-2.695-5.969-22.918-10.785-32.187-12.492-1.528-.27-3.118-.547-4.801-.825l-.09-.015-.039-.004-.094-.02v-.003l-.18-.075-.004.008v-.008" id="path54"/></clipPath><radialGradient fx="0" fy="0" cx="0" cy="0" r="1" gradientUnits="userSpaceOnUse" gradientTransform="matrix(174.872 0 0 -174.872 252.862 253.191)" spreadMethod="pad" id="radialGradient64"><stop offset="0" id="stop58" stop-color="#fff"/><stop offset=".799" id="stop60" stop-color="#fff"/><stop offset="1" id="stop62" stop-color="#d3d2d2"/></radialGradient><clipPath id="clipPath76"><path d="M252.863 80.637h-.058c-.938 18.937-1.442 28.918-1.754 41.504-.274 17.371-.485 39.316-.613 64.55 27.832-26.371 27.835-26.371 39.425-37.984 3.075 22.055 4.789 48.391 4.746 77.566 0 1.918-.015 3.84-.035 5.758 23.821-24.746 28.867-30.547 38.93-42.097 1.422 12.293 2.164 25.332 2.144 38.964a420.404 420.404 0 0 1-.054 5.946 859.703 859.703 0 0 1 16.992 1.656c3.715.398 7.332.82 10.84 1.273 3.273.418 6.179.825 8.652 1.211.152-1.925.219-3.886.219-5.808.047-29.731-5.012-56.75-14.188-79.586 5.168-13.258 5.25-18.809 2.871-28.77 25.047 28.371 40.356 68.434 40.286 114.164 0 1.922-.036 3.84-.09 5.754-8.098-2.133-18.106-4.066-29.098-5.754 10.992 1.688 21 3.621 29.098 5.754 7.91 2.082 14.262 4.364 18.742 6.809l.246.137c2.066 1.257 4.047 2.746 5.238 3.871.012-.789.016-1.575.016-2.367 0-95.141-77.406-172.551-172.555-172.551m41.711 151.394c11.656.582 21.192 1.149 34.496 2.262.008 0 .012 0 .016.004-13.313-1.117-22.852-1.684-34.512-2.266" id="path74"/></clipPath><clipPath id="clipPath82"><path d="M250.438 80.637h174.98v174.918h-174.98z" id="path80"/></clipPath><radialGradient fx="0" fy="0" cx="0" cy="0" r="1" gradientUnits="userSpaceOnUse" gradientTransform="matrix(174.872 0 0 -174.872 252.862 253.191)" spreadMethod="pad" id="radialGradient88"><stop offset="0" id="stop84" stop-color="#fcd006"/><stop offset="1" id="stop86" stop-color="#cfaa05"/></radialGradient><clipPath id="clipPath114"><path d="M251.16 231.141h-.871v.093c-.004 3.914-.016 15.414.004 31.106.047 35.539.246 68.902.566 96.32 1.012-11.465 8.743-16.015 15.942-16.015 3.254 0 6.394.925 8.765 2.57-2.441-11.727 6.321-21.574 15.715-23.082a16.876 16.876 0 0 1 2.696-.219c11.457.004 18.703 12.188 10.078 25.219 10.453.734 20.3 1.683 29.281 2.82 6.023-12.308 11.176-25.691 15.289-39.832-1.742.629-3.355.914-4.84.914-7.137 0-11.273-6.652-12.187-13.988-1.715-13.695 7.586-28.297 17.996-28.297 2.297 0 4.648.711 6.949 2.301-3.984-15.555 3.586-30.852 12.641-32.043l2.894-.024a357.57 357.57 0 0 0-8.652-1.211c-3.27-.418-6.899-.843-10.84-1.273a929.983 929.983 0 0 0-16.992-1.645c-2.281-.199-4.446-.386-6.524-.562a1029.614 1029.614 0 0 0-41.687-2.531c-1.578-.055-3.11-.106-4.61-.153a1063.873 1063.873 0 0 0-31.613-.468" id="path112"/></clipPath><radialGradient fx="0" fy="0" cx="0" cy="0" r="1" gradientUnits="userSpaceOnUse" gradientTransform="matrix(174.872 0 0 -174.872 252.862 253.191)" spreadMethod="pad" id="radialGradient120"><stop offset="0" id="stop116" stop-color="#e51733"/><stop offset="1" id="stop118" stop-color="#be1229"/></radialGradient><clipPath id="clipPath130"><path d="M251.527 231.141h-1.121.754c10.692 0 21.274.16 31.613.468-11.16-.347-20.335-.468-31.246-.468m77.543 3.152c2.078.176 4.243.363 6.524.562 5.859.52 11.535 1.059 16.992 1.645a859.703 859.703 0 0 0-16.992-1.656v.011c-2.274-.199-4.438-.386-6.508-.558-.004-.004-.008-.004-.016-.004m34.356 3.48c2.961.379 5.847.782 8.652 1.211a319.731 319.731 0 0 0-8.652-1.211" id="path128"/></clipPath><radialGradient fx="0" fy="0" cx="0" cy="0" r="1" gradientUnits="userSpaceOnUse" gradientTransform="matrix(174.872 0 0 -174.872 252.862 253.191)" spreadMethod="pad" id="radialGradient136"><stop offset="0" id="stop132" stop-color="#e51b23"/><stop offset="1" id="stop134" stop-color="#be161c"/></radialGradient><clipPath id="clipPath150"><path d="M251.152 115.941c-1.386 8.832-10.125 13.043-18.359 13.043-3.047 0-6.023-.578-8.535-1.711 2.922 11.731-10.738 20.313-21.059 20.84a18.31 18.31 0 0 1-1.14.032c-11.329 0-17.821-8.864-9.098-19.598-11.227.848-21.481 1.93-30.613 3.187-5.957 10.551-10.95 22.457-14.793 35.489 2.515-1.461 4.988-2.168 7.254-2.168 4.144 0 7.586 2.371 9.281 6.82 5.129 13.473-7.598 32.969-19.621 32.969-1.297 0-2.582-.227-3.84-.711 3.48 11.121-.215 31.168-13.688 35.722 26.282-4.472 47.641-6.281 79.043-7.582l.844-.035 3.504-.14h.031c12.895-.52 25.817-.957 38.598-.957h1.328c0-1.914.008-3.836.008-5.758.023-13.567.062-26.508.125-38.68.18-34.308.289-50.957.629-64.562.031-2.137.066-4.203.101-6.2" id="path148"/></clipPath><radialGradient fx="0" fy="0" cx="0" cy="0" r="1" gradientUnits="userSpaceOnUse" gradientTransform="matrix(174.872 0 0 -174.872 252.862 253.191)" spreadMethod="pad" id="radialGradient156"><stop offset="0" id="stop152" stop-color="#e51733"/><stop offset="1" id="stop154" stop-color="#be1229"/></radialGradient><clipPath id="clipPath166"><path d="M251.051 122.141c-.34 13.605-.449 30.254-.629 64.562.008-.004.012-.008.016-.012.128-25.234.339-47.179.613-64.55" id="path164"/></clipPath><radialGradient fx="0" fy="0" cx="0" cy="0" r="1" gradientUnits="userSpaceOnUse" gradientTransform="matrix(174.872 0 0 -174.872 252.862 253.191)" spreadMethod="pad" id="radialGradient172"><stop offset="0" id="stop168" stop-color="#e51b23"/><stop offset="1" id="stop170" stop-color="#be161c"/></radialGradient><clipPath id="clipPath184"><path d="M372.078 238.984c-2.187 42.149-9.332 79.559-37.09 125.129h-.004l.18.075v.003l.094.02.039.004.09.015c1.683.278 3.273.555 4.801.825 9.269 1.707 29.492 6.523 32.187 12.492a175.523 175.523 0 0 0 9.355-9.723c2.098-2.961 4.297-6.398 6.274-10.152.773-1.344 1.277-2.574 1.976-4.524.782-2.171 1.258-4.699 1.168-5.921-.191-2.457-1.277-3.332-2.707-3.332-.75 0-1.593.242-2.453.625l-.797.328c-8.933 4.019-11.847 12.203-13.586 15.586-4.531-1.438-12.035-4.7-18.277-5.911l-2.801-.593c7.356-12.11 14.364-26.559 19.391-40.559 1.703 1.75 3.59 2.527 5.531 2.527 8.051 0 17.039-13.347 17.574-26.328.332-8.125-2.753-15.484-9.101-15.484-1.051 0-2.184.199-3.406.629 6.914-12.817 4.703-31.613-8.438-35.731" id="path182"/></clipPath><radialGradient fx="0" fy="0" cx="0" cy="0" r="1" gradientUnits="userSpaceOnUse" gradientTransform="matrix(174.872 0 0 -174.872 252.862 253.191)" spreadMethod="pad" id="radialGradient190"><stop offset="0" id="stop186" stop-color="#e51733"/><stop offset="1" id="stop188" stop-color="#be1229"/></radialGradient><clipPath id="clipPath202"><path d="M250.844 358.68c1.07 10.152 6.961 15.097 13.476 15.097 2.313 0 4.703-.621 6.985-1.855-4.145 7.918-1.95 18.746 5.929 18.746 1.18 0 2.493-.246 3.926-.777 5.035-1.868 13.028-7.399 13.543-18.477 9.156.652 18.406 1.473 25.379 2.356-3.031 4.48-7.062 8.953-11.332 14.082-7.414 8.394-14.121 13.796-17.57 16.332l-.196-.145c-.336-1.168-1.464-3.445-5.129-3.445-2.109 0-5.058.754-9.183 2.91a23.17 23.17 0 0 0-3.293 1.992c-7.316 5.297-7.684 9.492-7.195 11.594-1.606.476-8.653 3.515-12.793 8.652.828 0 1.652-.012 2.48-.023 4.93-1.895 13.84-5.395 17.086-6.676 22.438-8.855 39.898-21.137 62.023-54.93-26.14-3.711-49.726-5.234-84.136-5.433" id="path200"/></clipPath><radialGradient fx="0" fy="0" cx="0" cy="0" r="1" gradientUnits="userSpaceOnUse" gradientTransform="matrix(174.872 0 0 -174.872 252.862 253.191)" spreadMethod="pad" id="radialGradient208"><stop offset="0" id="stop204" stop-color="#e51733"/><stop offset="1" id="stop206" stop-color="#be1229"/></radialGradient><clipPath id="clipPath220"><path d="M334.98 364.113v.008l.004-.008h-.004" id="path218"/></clipPath><radialGradient fx="0" fy="0" cx="0" cy="0" r="1" gradientUnits="userSpaceOnUse" gradientTransform="matrix(174.872 0 0 -174.872 252.862 253.191)" spreadMethod="pad" id="radialGradient226"><stop offset="0" id="stop222" stop-color="#e51733"/><stop offset="1" id="stop224" stop-color="#be1229"/></radialGradient><clipPath id="clipPath236"><path d="M334.988 364.113h-.008.008" id="path234"/></clipPath><radialGradient fx="0" fy="0" cx="0" cy="0" r="1" gradientUnits="userSpaceOnUse" gradientTransform="matrix(174.872 0 0 -174.872 252.862 253.191)" spreadMethod="pad" id="radialGradient242"><stop offset="0" id="stop238" stop-color="#dd1924"/><stop offset="1" id="stop240" stop-color="#b8141d"/></radialGradient><clipPath id="clipPath252"><path d="M334.68 376.453c-8.707 10.164-23.446 23.961-33.723 31.289 1.266-.336 1.996-.48 2.516-.48.586 0 .894.183 1.379.48-.028 2.363-5.961 6.602-9.954 8.488-3.992 1.887-8.476 3.532-11.16 4.309-2.472.715-4.468 1.063-6.203 1.254l-.09-.02a7.906 7.906 0 0 1-2.539 1.45c-.715.25-2.586.972-5.398 1.726 29.008-2.793 55.945-12.793 78.984-28.191-3.648 1.695-6.105 2.219-7.75 2.219-1.113 0-1.851-.243-2.332-.52l-.844-.824-.496-.828.075-1.223c2.921-5.562 15.898-15.34 16.535-15.34h.004c-4.125-1.379-13.028-2.66-19.004-3.789" id="path250"/></clipPath><radialGradient fx="0" fy="0" cx="0" cy="0" r="1" gradientUnits="userSpaceOnUse" gradientTransform="matrix(174.872 0 0 -174.872 252.862 253.191)" spreadMethod="pad" id="radialGradient258"><stop offset="0" id="stop254" stop-color="#e51733"/><stop offset="1" id="stop256" stop-color="#be1229"/></radialGradient><clipPath id="clipPath270"><path d="M353.684 380.242c.004 0 .007.004.015.004-.004-.004-.008-.004-.015-.004" id="path268"/></clipPath><radialGradient fx="0" fy="0" cx="0" cy="0" r="1" gradientUnits="userSpaceOnUse" gradientTransform="matrix(174.872 0 0 -174.872 252.862 253.191)" spreadMethod="pad" id="radialGradient276"><stop offset="0" id="stop272" stop-color="#e51733"/><stop offset="1" id="stop274" stop-color="#be1229"/></radialGradient><clipPath id="clipPath286"><path d="M160.531 122.121c-13.59 2.457-21.902 4.543-27.593 7.109a173.837 173.837 0 0 0-27.708 34.7l.434-.051c7.801-2.594 19.988-23.899 20.129-24.129 4.828-1.801 11.117-3.496 18.695-5.027-7.129 10.746-13.101 22.816-17.703 35.98a6.213 6.213 0 0 0-2.836-.687c-10.234 0-21.449 24.882-17.437 35.929.601 1.66 2.097 4.528 5.254 4.528 1.531 0 3.449-.672 5.847-2.485-5.527 12.739-4.023 31.867 9.297 31.867h.031c.301-42.218 6.082-78.617 33.59-117.734" id="path284"/></clipPath><radialGradient fx="0" fy="0" cx="0" cy="0" r="1" gradientUnits="userSpaceOnUse" gradientTransform="matrix(174.872 0 0 -174.872 252.862 253.191)" spreadMethod="pad" id="radialGradient292"><stop offset="0" id="stop288" stop-color="#e51733"/><stop offset="1" id="stop290" stop-color="#be1229"/></radialGradient><clipPath id="clipPath304"><path d="M223.285 83.176a170.797 170.797 0 0 0-24.187 6.035c-11.414 5.426-24.969 15.105-38.567 32.91 26.981-4.164 53.235-5.961 90.637-6.195l-.277-2.43c-1.106-4.433-5.981-8.723-13.246-8.723-2.594 0-5.493.543-8.629 1.825 4.933-6.516 1.718-12.25-5.891-12.25-.988 0-2.055.097-3.184.3-7.632 1.387-16.699 7.524-17.41 13.668-9.441.723-18.066 1.633-25.746 2.696 7.289-8.465 15.41-15.39 24.188-20.52a3.11 3.11 0 0 0 1.187.207c1.168 0 3.055-.433 6.692-1.71 4.898-1.716 9.628-3.86 14.433-5.813" id="path302"/></clipPath><radialGradient fx="0" fy="0" cx="0" cy="0" r="1" gradientUnits="userSpaceOnUse" gradientTransform="matrix(174.872 0 0 -174.872 252.862 253.191)" spreadMethod="pad" id="radialGradient310"><stop offset="0" id="stop306" stop-color="#e51733"/><stop offset="1" id="stop308" stop-color="#be1229"/></radialGradient><clipPath id="clipPath322"><path d="M248.992 231.141h-.031c-12.781 0-25.703.437-38.598.957h-.031l-3.504.14-.844.035c-31.402 1.301-52.761 3.11-79.043 7.582l-.171.032c-8.641 1.48-17.903 3.332-26.739 5.597-7.133 1.836-12.535 4.278-16.203 6.579-1.719 1.082-2.824 2.035-3.516 2.777.836 88.746 69.016 161.699 155.797 170.098-8.796-1.805-14.984-4.438-21.336-7.004 8.266 3.05 17.258 5.703 26.274 7.41 3.75.254 7.527.39 11.34.398-.582-7.359-1.192-37.469-1.543-67.082-.078-6.597-.164-13.176-.215-19.469-.231-27.711-.313-55.988-.336-76.851a11504.1 11504.1 0 0 1-.004-31.106v-.093H248.992" id="path320"/></clipPath><radialGradient fx="0" fy="0" cx="0" cy="0" r="1" gradientUnits="userSpaceOnUse" gradientTransform="matrix(174.872 0 0 -174.872 252.862 253.191)" spreadMethod="pad" id="radialGradient328"><stop offset="0" id="stop324" stop-color="#fcd006"/><stop offset="1" id="stop326" stop-color="#cfaa05"/></radialGradient><clipPath id="clipPath342"><path d="M250.289 231.234a11504.1 11504.1 0 0 0 .004 31.106c-.02-15.692-.008-27.192-.004-31.106" id="path340"/></clipPath><radialGradient fx="0" fy="0" cx="0" cy="0" r="1" gradientUnits="userSpaceOnUse" gradientTransform="matrix(174.872 0 0 -174.872 252.862 253.191)" spreadMethod="pad" id="radialGradient348"><stop offset="0" id="stop344" stop-color="#e51b23"/><stop offset="1" id="stop346" stop-color="#be161c"/></radialGradient><clipPath id="clipPath358"><path d="M248.992 231.141h-.031.031m0 0h.649-.649M210.363 232.098h-.031.031m-3.535.14l-.844.035c-31.402 1.301-52.761 3.11-79.043 7.582 26.282-4.472 47.641-6.281 79.043-7.582l.844-.035" id="path356"/></clipPath><radialGradient fx="0" fy="0" cx="0" cy="0" r="1" gradientUnits="userSpaceOnUse" gradientTransform="matrix(174.872 0 0 -174.872 252.862 253.191)" spreadMethod="pad" id="radialGradient364"><stop offset="0" id="stop360" stop-color="#e51b23"/><stop offset="1" id="stop362" stop-color="#be161c"/></radialGradient></defs><g id="layer1" transform="translate(-149.218 -510.104)"><g id="g10" transform="matrix(1.64302 0 0 -1.64302 149.218 592.035)"><g id="g12" transform="scale(.1)"><path d="M678.863 368.793c-5.39 15.18-19.422 25.137-37.218 25.137-27.258 0-44.243-19.754-44.243-47.176 0-29.543 21.227-51.258 46.036-51.258 12.898 0 28.73 4.41 39.835 24.156h3.098c-2.121-7.343-6.523-17.461-10.445-23.832-10.449 1.477-17.629-4.406-36.891-4.406-33.137 0-56.969 21.875-56.969 52.074 0 31.668 24.481 54.528 58.602 54.528 20.566 0 29.379-6.536 34.437-6.536 1.805 0 2.614.489 2.942.981h2.449l1.473-23.668h-3.106" id="path14" fill="#231f20"/><path d="M770.219 393.93c-28.723 0-40.156-26.77-40.156-46.36 0-30.523 20.734-52.074 47.019-52.074 26.602 0 39.34 23.508 39.34 46.688 0 30.363-19.262 51.746-46.203 51.746zm3.437-102.516c-32 0-58.929 20.57-58.929 51.098 0 32.48 24.968 55.504 59.746 55.504 30.843 0 57.297-21.067 57.297-50.446 0-32.976-26.454-56.156-58.114-56.156" id="path16" fill="#231f20"/><path d="M930.574 294.027h-72.961v3.098H863c7.508 0 10.277 2.449 10.277 10.777v72.317c0 8.652-2.609 12.242-12.894 12.242h-2.281v3.102h48.152v-3.102h-6.035c-10.617 0-13.387-1.141-13.387-11.262v-75.254c0-4.406 1.793-6.039 6.523-6.039h24.004c9.629 0 12.567 3.754 22.844 17.953h2.949l-12.578-23.832" id="path18" fill="#231f20"/><path d="M1037.98 294.027h-72.964v3.098h5.375c7.511 0 10.289 2.449 10.289 10.777v72.317c0 8.652-2.61 12.242-12.899 12.242h-2.277v3.102h48.146v-3.102h-6.04c-10.606 0-13.387-1.141-13.387-11.262v-75.254c0-4.406 1.804-6.039 6.537-6.039h24c9.63 0 12.57 3.754 22.85 17.953h2.93l-12.56-23.832" id="path20" fill="#231f20"/><path d="M1146.27 330.758h-3.09c-1.32 11.59-4.42 12.894-11.11 12.894h-27.59v-34.769c0-7.508 2.78-8.977 8.82-8.977h25.14c11.43 0 14.85 4.407 18.94 18.442h2.94l-2.62-24.321h-86.68v3.098h4.57c13.06 0 15.35 3.598 15.35 13.391v68.882c0 9.145-2.12 13.063-13.07 13.063h-3.58v3.102h78.35l1.3-22.692H1151c-2.12 13.879-6.19 16.817-12.08 16.817h-34.44v-40.157h29.22c5.88 0 8.66 2.774 9.48 12.242h3.09v-31.015" id="path22" fill="#231f20"/><path d="M1287.78 301.695c-16.17-8.324-36.9-10.281-43.76-10.281-35.75 0-52.39 27.59-52.39 51.422 0 24.484 17.14 55.18 56.97 55.18 17.46 0 29.05-5.555 32.48-5.555 1.47 0 2.77.324 3.76 1.141h2.28V367.16h-3.27c-4.4 20.406-18.27 26.77-33.46 26.77-28.73 0-43.42-23.832-43.42-50.114 0-33.464 23.51-48.32 42.27-48.32 7.51 0 15.84 1.629 24.98 6.199v20.575c0 9.304-3.27 12.402-13.06 12.402h-6.04v2.937h44.08v-2.937c-8.17-.488-11.42-3.262-11.42-10.281v-22.696" id="path24" fill="#231f20"/><path d="M1394.08 330.758h-3.1c-1.3 11.59-4.41 12.894-11.1 12.894h-27.59v-34.769c0-7.508 2.78-8.977 8.82-8.977h25.13c11.44 0 14.86 4.407 18.95 18.442h2.93l-2.61-24.321h-86.68v3.098h4.57c13.06 0 15.35 3.598 15.35 13.391v68.882c0 9.145-2.12 13.063-13.07 13.063h-3.58v3.102h78.35l1.31-22.692h-2.95c-2.12 13.879-6.19 16.817-12.07 16.817h-34.45v-40.157h29.22c5.88 0 8.66 2.774 9.47 12.242h3.1v-31.015" id="path26" fill="#231f20"/><path d="M1557.41 393.93c-28.73 0-40.15-26.77-40.15-46.36 0-30.523 20.72-52.074 47.01-52.074 26.61 0 39.35 23.508 39.35 46.688 0 30.363-19.28 51.746-46.21 51.746zm3.43-102.516c-31.99 0-58.93 20.57-58.93 51.098 0 32.48 24.98 55.504 59.75 55.504 30.85 0 57.29-21.067 57.29-50.446 0-32.976-26.44-56.156-58.11-56.156" id="path28" fill="#231f20"/><path d="M1718.79 333.039h-2.78c-.33 9.473-3.76 12.41-11.6 12.41h-30.19v-35.75c0-9.14 1.96-12.574 14.2-12.574v-3.098h-39.67v3.098c10.12.656 11.91 2.781 11.91 16v63.992c0 10.449-.8 15.18-12.24 15.344v3.102h73.13v-19.258h-2.76c-.17 9.465-3.44 13.383-13.56 13.383h-31.01v-38.364h32.32c6.04 0 8.98 3.426 9.47 10.449h2.78v-28.734" id="path30" fill="#231f20"/><path d="M694.918 134.938h-4.664c-1.949 17.378-6.602 19.335-16.641 19.335h-41.359v-52.136c0-11.258 4.152-13.461 13.215-13.461h37.695c17.129 0 22.27 6.605 28.395 27.66h4.402l-3.914-36.473H582.066v4.653h6.852c19.582 0 23.016 5.382 23.016 20.066v103.297c0 13.711-3.184 19.586-19.59 19.586h-5.375v4.652h117.488l1.961-34.027h-4.41c-3.18 20.805-9.305 25.215-18.106 25.215h-51.648V163.09h43.809c8.816 0 12.976 4.156 14.191 18.359h4.664v-46.511" id="path32" fill="#231f20"/><path d="M774.203 97.973c0-10.032.738-13.457 20.078-13.457 32.797 0 46.512 4.648 61.68 19.828 9.062 8.808 20.316 27.656 20.316 52.867 0 18.117-5.14 38.191-19.582 52.633-11.254 11.258-28.632 19.828-62.902 19.828-10.039 0-16.652-.738-19.59-.981zm-20.316 109.664c0 15.91-4.153 19.828-18.594 19.828h-4.902v4.652c9.054.488 21.054.981 34.511 1.469 13.465.488 28.395.73 41.129.73 64.617 0 93.262-32.8 93.262-73.183 0-36.965-28.645-81.27-90.57-81.27h-78.332v4.653h4.164c13.215 0 19.332 3.668 19.332 17.867v105.254" id="path34" fill="#231f20"/><path d="M1094.12 232.117v-4.652c-16.4-.242-22.27-6.856-22.27-22.524v-66.089c0-30.352-19.34-62.907-72.455-62.907-46.762 0-70.754 26.68-70.754 61.684v71.476c0 15.668-4.403 18.118-21.043 18.36v4.652H970.5v-4.652h-2.199c-13.465 0-19.34-3.668-19.34-17.871v-68.047c0-33.047 19.34-52.871 55.809-52.871 27.67 0 55.81 11.504 55.81 53.113v57.039c0 23.496-3.66 27.656-23.98 28.637v4.652h57.52" id="path36" fill="#231f20"/><path d="M1246.6 191.969c-8.07 22.769-29.13 37.703-55.81 37.703-40.88 0-66.34-29.621-66.34-70.746 0-44.305 31.82-76.864 69.03-76.864 19.34 0 43.08 6.614 59.73 36.231h4.65c-3.18-11.016-9.79-26.191-15.67-35.742-15.66 2.207-26.43-6.606-55.31-6.606-49.7 0-85.43 32.801-85.43 78.086 0 47.485 36.72 81.754 87.87 81.754 30.84 0 44.06-9.789 51.65-9.789 2.7 0 3.92.738 4.41 1.469h3.67l2.2-35.496h-4.65" id="path38" fill="#231f20"/><path d="M1342.54 215.227l-20.8-57.036h42.34zm-24.97-67.805l-14.2-38.434c-1.71-4.644-4.89-11.992-4.89-15.422 0-6.605 6.37-9.05 19.82-9.05h3.93v-4.653h-56.55v4.653c15.91.242 18.6 2.937 26.44 24.23l44.55 121.656-2.2 5.383h21.29l51.16-135.855c4.89-12.97 10.03-15.414 22.27-15.414v-4.653h-67.32v4.653h6.37c13.95 0 19.09 1.468 19.09 8.32 0 3.918-1.71 7.59-2.69 10.031l-16.4 44.555h-50.67" id="path40" fill="#231f20"/><path d="M1505.06 102.383c0-13.219 4.4-17.867 19.34-17.867h9.05v-4.653h-77.1v4.653h9.05c14.94 0 19.34 4.648 19.34 17.867v120.922h-42.59c-9.79 0-14.2-5.629-17.87-27.172h-4.4l3.91 39.652h4.65c.25-1.469 1.23-2.441 2.69-2.937 1.47-.489 3.19-.731 4.9-.731h117.74c3.43 0 7.1.731 7.59 3.668h4.65l3.91-39.652h-4.4c-3.67 21.543-8.08 27.172-17.87 27.172h-42.59V102.383" id="path42" fill="#231f20"/><path d="M1648.23 79.863h-59.47v4.653c15.17.73 18.35 4.648 18.35 21.047v104.281c0 13.215-4.65 16.89-18.35 17.621v4.652h59.47v-4.652c-15.41 0-20.8-3.426-20.8-19.828V103.852c0-14.442 3.92-19.336 20.8-19.336v-4.653" id="path44" fill="#231f20"/><path d="M1751.28 229.672c-43.08 0-60.21-40.149-60.21-69.524 0-45.769 31.08-78.085 70.49-78.085 39.9 0 59 35.253 59 70.011 0 45.528-28.89 77.598-69.28 77.598zm5.14-153.727c-47.97 0-88.37 30.844-88.37 76.618 0 48.71 37.46 83.222 89.6 83.222 46.26 0 85.92-31.574 85.92-75.637 0-49.441-39.66-84.203-87.15-84.203" id="path46" fill="#231f20"/><path d="M2018.81 78.148l-126.79 132.668V105.809c0-17.625 3.91-21.293 24.72-21.293v-4.653h-56.79v4.653h.98c15.17 0 20.07 5.136 20.07 16.394v120.438c-5.63 3.914-12 5.875-20.56 6.117v4.652h38.43l115.29-120.191v97.429c0 14.93-4.4 17.622-23.99 18.11v4.652h57.28v-4.652c-18.36 0-22.28-3.18-22.28-12.727V78.148h-6.36" id="path48" fill="#231f20"/><g id="g50"><g id="g52" clip-path="url(#clipPath56)"><path d="M252.805 80.637a173.055 173.055 0 0 0-29.52 2.539c-4.805 1.953-9.535 4.097-14.433 5.812-3.637 1.278-5.524 1.711-6.692 1.711a3.11 3.11 0 0 1-1.187-.207c-8.778 5.13-16.899 12.055-24.188 20.52 7.68-1.063 16.305-1.973 25.746-2.696.711-6.144 9.778-12.28 17.41-13.668 1.129-.203 2.196-.3 3.184-.3 7.609 0 10.824 5.734 5.891 12.25 3.136-1.282 6.035-1.825 8.629-1.825 7.265 0 12.14 4.29 13.246 8.723l.277 2.43c-37.402.234-63.656 2.031-90.637 6.195 13.598-17.805 27.153-27.484 38.567-32.91-25.063 8.238-47.614 22.074-66.16 40.019 5.691-2.566 14.003-4.652 27.593-7.109-27.508 39.117-33.289 75.516-33.59 117.734 13.473-4.554 17.168-24.601 13.688-35.722 1.258.484 2.543.711 3.84.711 12.023 0 24.75-19.496 19.621-32.969-1.695-4.449-5.137-6.82-9.281-6.82-2.266 0-4.739.707-7.254 2.168 3.843-13.032 8.836-24.938 14.793-35.489 9.132-1.257 19.386-2.339 30.613-3.187-8.723 10.734-2.231 19.598 9.098 19.598.375 0 .754-.008 1.14-.032 10.321-.527 23.981-9.109 21.059-20.84 2.512 1.133 5.488 1.711 8.535 1.711 8.234 0 16.973-4.211 18.359-13.043-.035 1.997-.07 4.063-.101 6.2.312-12.586.816-22.567 1.754-41.504m-108.317 54.086c-7.578 1.531-13.867 3.226-18.695 5.027-.141.23-12.328 21.535-20.129 24.129l-.434.051c-15.812 26.058-24.925 56.617-24.925 89.258 0 .554.004 1.097.007 1.652.692-.742 1.797-1.695 3.516-2.777 3.668-2.301 9.07-4.743 16.203-6.579 8.836-2.265 18.098-4.117 26.739-5.597l.171-.032h-.031c-13.32 0-14.824-19.128-9.297-31.867-2.398 1.813-4.316 2.485-5.847 2.485-3.157 0-4.653-2.868-5.254-4.528-4.012-11.047 7.203-35.929 17.437-35.929.957 0 1.91.218 2.836.687 4.602-13.164 10.574-25.234 17.703-35.98m104.473 96.418c-12.781 0-25.703.437-38.598.957 12.895-.52 25.817-.957 38.598-.957m.68 0h.648-.648m.648 0v0m37.094.621c14.531.578 28.808 1.488 41.687 2.531-13.304-1.113-22.84-1.68-34.496-2.262-2.508-.097-4.898-.187-7.191-.269m-77.051.336l-3.504.14 3.504-.14m142.254 4.402c3.941.43 7.57.855 10.84 1.273a504.044 504.044 0 0 0-10.84-1.273m19.492 2.484l-2.894.024c-9.055 1.191-16.625 16.488-12.641 32.043-2.301-1.59-4.652-2.301-6.949-2.301-10.41 0-19.711 14.602-17.996 28.297.914 7.336 5.05 13.988 12.187 13.988 1.485 0 3.098-.285 4.84-.914-4.113 14.141-9.266 27.524-15.289 39.832-8.981-1.137-18.828-2.086-29.281-2.82 8.625-13.031 1.379-25.215-10.078-25.219-.875 0-1.774.07-2.696.219-9.394 1.508-18.156 11.355-15.715 23.082-2.371-1.645-5.511-2.57-8.765-2.57-7.199 0-14.93 4.55-15.942 16.015-.32-27.418-.519-60.781-.566-96.32.023 20.863.105 49.14.336 76.851.051 6.293.137 12.872.215 19.469.351 29.613.961 59.723 1.543 67.082h1.004c4.14-5.137 11.187-8.176 12.793-8.652-.489-2.102-.121-6.297 7.195-11.594a23.17 23.17 0 0 1 3.293-1.992c4.125-2.156 7.074-2.91 9.183-2.91 3.665 0 4.793 2.277 5.129 3.445l.196.145c3.449-2.536 10.156-7.938 17.57-16.332 4.27-5.129 8.301-9.602 11.332-14.082-6.973-.883-16.223-1.704-25.379-2.356-.515 11.078-8.508 16.609-13.543 18.477-1.433.531-2.746.777-3.926.777-7.879 0-10.074-10.828-5.929-18.746-2.282 1.234-4.672 1.855-6.985 1.855-6.515 0-12.406-4.945-13.476-15.097 34.41.199 57.996 1.722 84.136 5.433h.008c27.758-45.57 34.903-82.98 37.09-125.129m0 0c13.141 4.118 15.352 22.914 8.438 35.731 1.222-.43 2.355-.629 3.406-.629 6.348 0 9.433 7.359 9.101 15.484-.535 12.981-9.523 26.328-17.574 26.328-1.941 0-3.828-.777-5.531-2.527-5.027 14-12.035 28.449-19.391 40.559l2.801.593c6.242 1.211 13.746 4.473 18.277 5.911 1.739-3.383 4.653-11.567 13.586-15.586l.797-.328c.86-.383 1.703-.625 2.453-.625 1.43 0 2.516.875 2.707 3.332.09 1.222-.386 3.75-1.168 5.921-.699 1.95-1.203 3.18-1.976 4.524-1.977 3.754-4.176 7.191-6.274 10.152 26.676-29.953 43.09-69.234 43.672-112.269-1.191-1.125-3.172-2.614-5.238-3.871l-.246-.137c-4.48-2.445-10.832-4.727-18.742-6.809-8.098-2.133-18.106-4.066-29.098-5.754M334.98 364.113c-22.125 33.793-39.585 46.075-62.023 54.93a2722.987 2722.987 0 0 1-17.086 6.676c4.594-.078 9.137-.34 13.637-.77 2.812-.754 4.683-1.476 5.398-1.726a7.906 7.906 0 0 0 2.539-1.45l.09.02c1.735-.191 3.731-.539 6.203-1.254 2.684-.777 7.168-2.422 11.16-4.309 3.993-1.886 9.926-6.125 9.954-8.488-.485-.297-.793-.48-1.379-.48-.52 0-1.25.144-2.516.48 10.277-7.328 25.016-21.125 33.723-31.289 5.976 1.129 14.879 2.41 19.004 3.789.007 0 .011 0 .015.004-.008 0-.011-.004-.015-.004h-.004c-.637 0-13.614 9.778-16.535 15.34l-.075 1.223.496.828.844.824c.481.277 1.219.52 2.332.52 1.645 0 4.102-.524 7.75-2.219a174.04 174.04 0 0 0 23.883-19.211c-2.695-5.969-22.918-10.785-32.187-12.492-1.528-.27-3.118-.547-4.801-.825l-.09-.015-.039-.004-.094-.02v-.003l-.18-.075-.004.008v-.008" id="path66" fill="url(#radialGradient64)"/></g></g><path d="M252.863 425.742c-95.148 0-172.558-77.406-172.558-172.554 0-95.141 77.41-172.551 172.558-172.551 95.149 0 172.555 77.41 172.555 172.551 0 95.148-77.406 172.554-172.555 172.554m0-347.422c-96.425 0-174.875 78.45-174.875 174.868 0 96.425 78.45 174.875 174.875 174.875 96.426 0 174.871-78.45 174.871-174.875 0-96.418-78.445-174.868-174.871-174.868" id="path68" fill="#d3d2d2"/><g id="g70"><g id="g72" clip-path="url(#clipPath76)"><g id="g78" clip-path="url(#clipPath82)"><path d="M252 80v17h-1v28h-1v62h2v-1h1v-1h1v-1h1v-1h1v-1h1v-1h1v-1h1v-1h1v-1h1v-1h1v-1h1v-1h1v-1h1v-1h1v-1h1v-1h2v-1h1v-1h1v-1h1v-1h1v-1h1v-1h1v-1h1v-1h1v-1h1v-1h1v-1h1v-1h1v-1h1v-1h1v-1h1v-1h1v-1h1v-1h1v-1h1v-1h1v-1h1v8h1v10h1v12h1v18h1v35h17v1h14v1h5v-1h-4v-1h-14v-1h-16v-1h1v-1h1v-1h1v-1h1v-1h1v-1h1v-1h1v-1h1v-1h1v-1h1v-1h1v-1h1v-2h1v-1h1v-1h1v-1h1v-1h1v-1h1v-1h1v-1h1v-1h1v-1h1v-1h1v-1h1v-1h1v-1h1v-2h1v-1h1v-1h1v-1h1v-1h1v-1h1v-1h1v-1h1v-2h1v-1h1v-1h1v3h1v13h1v27h2v1h10v1h9v1h9v1h7v1h6v1h5v1h6v1h4v1h5v1h4v1h3v1h3v1h3v1h3v1h2v1h2v1h2v1h2v1h1v1h1v1h2v-14h-1v-10h-1v-7h-1v-6h-1v-5h-1v-3h-1v-4h-1v-4h-1v-3h-1v-3h-1v-3h-1v-3h-1v-2h-1v-3h-1v-2h-1v-2h-1v-2h-1v-2h-1v-2h-1v-3h-1v-2h-1v-1h-1v-2h-1v-2h-1v-1h-1v-2h-1v-2h-1v-1h-1v-2h-1v-2h-1v-1h-1v-1h-1v-2h-1v-1h-1v-1h-1v-2h-1v-1h-1v-1h-1v-2h-1v-1h-1v-1h-1v-1h-1v-1h-1v-1h-1v-1h-1v-2h-1v-1h-1v-1h-1v-1h-1v-1h-1v-1h-1v-1h-1v-1h-1v-1h-1v-1h-1v-1h-1v-1h-2v-1h-1v-1h-1v-1h-1v-1h-1v-1h-1v-1h-1v-1h-2v-1h-1v-1h-1v-1h-2v-1h-1v-1h-1v-1h-2v-1h-1v-1h-1v-1h-2v-1h-2v-1h-1v-1h-2v-1h-2v-1h-1v-1h-2v-1h-2v-1h-1v-1h-3v-1h-2v-1h-2v-1h-2v-1h-2v-1h-2v-1h-2v-1h-3v-1h-3v-1h-2v-1h-3v-1h-3v-1h-3v-1h-4v-1h-4v-1h-4v-1h-4v-1h-6v-1h-7v-1h-11v-1zm110 49v-1h1v1h1v1h1v1h1v2h1v1h1v1h1v2h1v1h1v2h1v1h1v2h1v1h1v2h1v1h1v2h1v2h1v2h1v2h1v2h1v2h1v1h1v2h1v3h1v2h1v3h1v2h1v3h1v2h1v4h1v3h1v3h1v3h1v5h1v4h1v5h1v6h1v8h1v12h1v14h-2v-1h-5v-1h-4v-1h-6v-1h-5v-1h-6v-17h-1v-14h-1v-8h-1v-7h-1v-6h-1v-4h-1v-4h-1v-5h-1v-4h-1v-3h-1v-3h-1v-3h-1v-3h-1v-3h-1v-3h1v-3h1v-3h1v-6h1v-10h-1v-1" id="path90" fill="url(#radialGradient88)"/></g></g></g><path d="M252.863 79.48l-.058 1.157h.058c95.149 0 172.555 77.41 172.555 172.551 0 .792-.004 1.578-.016 2.367.711.668 1.141 1.211 1.141 1.5 0-1.348.031-3.867.031-3.867 0-95.934-77.773-173.708-173.711-173.708" id="path92" fill="#cfaa05"/><path d="M250.297 225.383c.023-13.567.062-26.508.125-38.68 27.848-26.383 27.848-26.383 39.441-37.996 3.075 22.055 4.789 48.391 4.746 77.566 0 1.918-.015 3.84-.035 5.758-17.594-.691-29.187-.902-44.285-.89 0-1.914.008-3.836.008-5.758" id="path94" fill="#231f20"/><path d="M314.039 119.031c-6.078 9.907-11.621 16.36-24.195 29.571-5.91-42.301-16.446-68.34-29.418-68.903 1.094.051 2.793.153 3.887.211 1.378.098 3.066.246 4.449.356 17.976 1.601 33.441 15.394 45.277 38.765" id="path96" fill="#231f20"/><path d="M333.504 189.934c.031.254-10.004-52.176-19.465-70.903 5.449-10.492 5.688-14.676 3.496-21.558 16.863 12.797 30.77 32.105 40.344 56.015-6.145 12.504-10.316 19.164-24.375 36.446" id="path98" fill="#231f20"/><path d="M283.762 82.195c3.785.664 3.578.735 10.574 2.309l4.168 1.2c12.82 3.984 15.074 5.995 19.07 11.937-11.445-8.621-23.691-13.895-37.371-16.032l3.559.586" id="path100" fill="#231f20"/><path d="M360.98 124.82c25.047 28.371 40.356 68.434 40.286 114.164 0 1.922-.036 3.84-.09 5.754-8.098-2.133-18.106-4.066-29.098-5.754.152-1.925.219-3.886.219-5.808.047-29.731-5.012-56.75-14.188-79.586 5.168-13.258 5.25-18.809 2.871-28.77" id="path102" fill="#231f20"/><path d="M335.594 234.855c-16.903-1.5-27.547-2.152-41.02-2.824 23.821-24.746 28.867-30.547 38.93-42.097 1.422 12.293 2.164 25.332 2.144 38.964a421.28 421.28 0 0 1-.054 5.957" id="path104" fill="#231f20"/><path d="M214.773 417.934c9.684 3.914 18.985 7.976 37.739 9.035-12.696-1.149-25.953-4.684-37.739-9.035" id="path106" fill="#231f20"/><g id="g108"><g id="g110" clip-path="url(#clipPath114)"><path d="M251.16 231.141h-.871v.093c-.004 3.914-.016 15.414.004 31.106.047 35.539.246 68.902.566 96.32 1.012-11.465 8.743-16.015 15.942-16.015 3.254 0 6.394.925 8.765 2.57-2.441-11.727 6.321-21.574 15.715-23.082a16.876 16.876 0 0 1 2.696-.219c11.457.004 18.703 12.188 10.078 25.219 10.453.734 20.3 1.683 29.281 2.82 6.023-12.308 11.176-25.691 15.289-39.832-1.742.629-3.355.914-4.84.914-7.137 0-11.273-6.652-12.187-13.988-1.715-13.695 7.586-28.297 17.996-28.297 2.297 0 4.648.711 6.949 2.301-3.984-15.555 3.586-30.852 12.641-32.043l2.894-.024a357.57 357.57 0 0 0-8.652-1.211c-3.27-.418-6.899-.843-10.84-1.273a929.983 929.983 0 0 0-16.992-1.645c-2.281-.199-4.446-.386-6.524-.562a1029.614 1029.614 0 0 0-41.687-2.531c-1.578-.055-3.11-.106-4.61-.153a1063.873 1063.873 0 0 0-31.613-.468" id="path122" fill="url(#radialGradient120)"/></g></g><g id="g124"><g id="g126" clip-path="url(#clipPath130)"><path d="M251.527 231.141h-1.121.754c10.692 0 21.274.16 31.613.468-11.16-.347-20.335-.468-31.246-.468m77.543 3.152c2.078.176 4.243.363 6.524.562 5.859.52 11.535 1.059 16.992 1.645a859.703 859.703 0 0 0-16.992-1.656v.011c-2.274-.199-4.438-.386-6.508-.558-.004-.004-.008-.004-.016-.004m34.356 3.48c2.961.379 5.847.782 8.652 1.211a319.731 319.731 0 0 0-8.652-1.211" id="path138" fill="url(#radialGradient136)"/></g></g><path d="M256.383 231.113c-2.043 0-4.078.008-6.094.028h1.238c10.911 0 20.086.121 31.246.468 1.5.047 3.032.098 4.61.153-10.348-.41-20.82-.649-31-.649" id="path140" fill="#200"/><path d="M329.086 234.297c2.07.172 4.234.359 6.508.558v-.011a716.875 716.875 0 0 0-6.508-.547" id="path142" fill="#200"/><g id="g144"><g id="g146" clip-path="url(#clipPath150)"><path d="M251.152 115.941c-1.386 8.832-10.125 13.043-18.359 13.043-3.047 0-6.023-.578-8.535-1.711 2.922 11.731-10.738 20.313-21.059 20.84a18.31 18.31 0 0 1-1.14.032c-11.329 0-17.821-8.864-9.098-19.598-11.227.848-21.481 1.93-30.613 3.187-5.957 10.551-10.95 22.457-14.793 35.489 2.515-1.461 4.988-2.168 7.254-2.168 4.144 0 7.586 2.371 9.281 6.82 5.129 13.473-7.598 32.969-19.621 32.969-1.297 0-2.582-.227-3.84-.711 3.48 11.121-.215 31.168-13.688 35.722 26.282-4.472 47.641-6.281 79.043-7.582l.844-.035 3.504-.14h.031c12.895-.52 25.817-.957 38.598-.957h1.328c0-1.914.008-3.836.008-5.758.023-13.567.062-26.508.125-38.68.18-34.308.289-50.957.629-64.562.031-2.137.066-4.203.101-6.2" id="path158" fill="url(#radialGradient156)"/></g></g><g id="g160"><g id="g162" clip-path="url(#clipPath166)"><path d="M251.051 122.141c-.34 13.605-.449 30.254-.629 64.562.008-.004.012-.008.016-.012.128-25.234.339-47.179.613-64.55" id="path174" fill="url(#radialGradient172)"/></g></g><path d="M250.438 186.691c-.004.004-.008.008-.016.012-.063 12.172-.102 25.113-.125 38.68 0 1.922-.008 3.844-.008 5.758 0-1.969.024-3.782.024-5.758.019-13.57.062-26.512.125-38.692" id="path176" fill="#200"/><g id="g178"><g id="g180" clip-path="url(#clipPath184)"><path d="M372.078 238.984c-2.187 42.149-9.332 79.559-37.09 125.129h-.004l.18.075v.003l.094.02.039.004.09.015c1.683.278 3.273.555 4.801.825 9.269 1.707 29.492 6.523 32.187 12.492a175.523 175.523 0 0 0 9.355-9.723c2.098-2.961 4.297-6.398 6.274-10.152.773-1.344 1.277-2.574 1.976-4.524.782-2.171 1.258-4.699 1.168-5.921-.191-2.457-1.277-3.332-2.707-3.332-.75 0-1.593.242-2.453.625l-.797.328c-8.933 4.019-11.847 12.203-13.586 15.586-4.531-1.438-12.035-4.7-18.277-5.911l-2.801-.593c7.356-12.11 14.364-26.559 19.391-40.559 1.703 1.75 3.59 2.527 5.531 2.527 8.051 0 17.039-13.347 17.574-26.328.332-8.125-2.753-15.484-9.101-15.484-1.051 0-2.184.199-3.406.629 6.914-12.817 4.703-31.613-8.438-35.731" id="path192" fill="url(#radialGradient190)"/></g></g><path d="M381.73 367.824a175.523 175.523 0 0 1-9.355 9.723c.195.43.297.871.297 1.316 0 0 4.273-4.285 9.058-11.039" id="path194" fill="#be1228"/><g id="g196"><g id="g198" clip-path="url(#clipPath202)"><path d="M250.844 358.68c1.07 10.152 6.961 15.097 13.476 15.097 2.313 0 4.703-.621 6.985-1.855-4.145 7.918-1.95 18.746 5.929 18.746 1.18 0 2.493-.246 3.926-.777 5.035-1.868 13.028-7.399 13.543-18.477 9.156.652 18.406 1.473 25.379 2.356-3.031 4.48-7.062 8.953-11.332 14.082-7.414 8.394-14.121 13.796-17.57 16.332l-.196-.145c-.336-1.168-1.464-3.445-5.129-3.445-2.109 0-5.058.754-9.183 2.91a23.17 23.17 0 0 0-3.293 1.992c-7.316 5.297-7.684 9.492-7.195 11.594-1.606.476-8.653 3.515-12.793 8.652.828 0 1.652-.012 2.48-.023 4.93-1.895 13.84-5.395 17.086-6.676 22.438-8.855 39.898-21.137 62.023-54.93-26.14-3.711-49.726-5.234-84.136-5.433" id="path210" fill="url(#radialGradient208)"/></g></g><path d="M255.871 425.719c-.828.011-1.652.023-2.48.023-.286.352-.555.715-.809 1.086l-.07.141c.211-.051 1.504-.539 3.359-1.25" id="path212" fill="#be1228"/><g id="g214"><g id="g216" clip-path="url(#clipPath220)"><path d="M334.98 364.113v.008l.004-.008h-.004" id="path228" fill="url(#radialGradient226)"/></g></g><g id="g230"><g id="g232" clip-path="url(#clipPath236)"><path d="M334.988 364.113h-.008.008" id="path244" fill="url(#radialGradient242)"/></g></g><g id="g246"><g id="g248" clip-path="url(#clipPath252)"><path d="M334.68 376.453c-8.707 10.164-23.446 23.961-33.723 31.289 1.266-.336 1.996-.48 2.516-.48.586 0 .894.183 1.379.48-.028 2.363-5.961 6.602-9.954 8.488-3.992 1.887-8.476 3.532-11.16 4.309-2.472.715-4.468 1.063-6.203 1.254l-.09-.02a7.906 7.906 0 0 1-2.539 1.45c-.715.25-2.586.972-5.398 1.726 29.008-2.793 55.945-12.793 78.984-28.191-3.648 1.695-6.105 2.219-7.75 2.219-1.113 0-1.851-.243-2.332-.52l-.844-.824-.496-.828.075-1.223c2.921-5.562 15.898-15.34 16.535-15.34h.004c-4.125-1.379-13.028-2.66-19.004-3.789" id="path260" fill="url(#radialGradient258)"/></g></g><path d="M359.957 389.949c-4.746 3.278-8.5 5.434-11.465 6.809-23.039 15.398-49.976 25.398-78.984 28.191a63.284 63.284 0 0 1-10.707 1.879s7.199-.297 11.09-.746c27.519-2.703 59.949-12.445 90.066-36.133" id="path262" fill="#be1228"/><g id="g264"><g id="g266" clip-path="url(#clipPath270)"><path d="M353.684 380.242c.004 0 .007.004.015.004-.004-.004-.008-.004-.015-.004" id="path278" fill="url(#radialGradient276)"/></g></g><g id="g280"><g id="g282" clip-path="url(#clipPath286)"><path d="M160.531 122.121c-13.59 2.457-21.902 4.543-27.593 7.109a173.837 173.837 0 0 0-27.708 34.7l.434-.051c7.801-2.594 19.988-23.899 20.129-24.129 4.828-1.801 11.117-3.496 18.695-5.027-7.129 10.746-13.101 22.816-17.703 35.98a6.213 6.213 0 0 0-2.836-.687c-10.234 0-21.449 24.882-17.437 35.929.601 1.66 2.097 4.528 5.254 4.528 1.531 0 3.449-.672 5.847-2.485-5.527 12.739-4.023 31.867 9.297 31.867h.031c.301-42.218 6.082-78.617 33.59-117.734" id="path294" fill="url(#radialGradient292)"/></g></g><path d="M132.938 129.23c-.547.25-1.071.5-1.575.758-.949.489-1.25.496-1.48.543-.125.024-8.477 8.578-15.824 18.114-5.332 6.921-9.832 14.734-10.313 15.468l1.484-.183a173.837 173.837 0 0 1 27.708-34.7" id="path296" fill="#be1228"/><g id="g298"><g id="g300" clip-path="url(#clipPath304)"><path d="M223.285 83.176a170.797 170.797 0 0 0-24.187 6.035c-11.414 5.426-24.969 15.105-38.567 32.91 26.981-4.164 53.235-5.961 90.637-6.195l-.277-2.43c-1.106-4.433-5.981-8.723-13.246-8.723-2.594 0-5.493.543-8.629 1.825 4.933-6.516 1.718-12.25-5.891-12.25-.988 0-2.055.097-3.184.3-7.632 1.387-16.699 7.524-17.41 13.668-9.441.723-18.066 1.633-25.746 2.696 7.289-8.465 15.41-15.39 24.188-20.52a3.11 3.11 0 0 0 1.187.207c1.168 0 3.055-.433 6.692-1.71 4.898-1.716 9.628-3.86 14.433-5.813" id="path312" fill="url(#radialGradient310)"/></g></g><path d="M228.508 81.172l-1.403.207c-5.042.777-6.269 1.047-9.097 1.605a78.96 78.96 0 0 0-18.91 6.227 170.797 170.797 0 0 1 24.187-6.035 120.992 120.992 0 0 1 5.223-2.004" id="path314" fill="#be1228"/><g id="g316"><g id="g318" clip-path="url(#clipPath322)"><path d="M248.992 231.141h-.031c-12.781 0-25.703.437-38.598.957h-.031l-3.504.14-.844.035c-31.402 1.301-52.761 3.11-79.043 7.582l-.171.032c-8.641 1.48-17.903 3.332-26.739 5.597-7.133 1.836-12.535 4.278-16.203 6.579-1.719 1.082-2.824 2.035-3.516 2.777.836 88.746 69.016 161.699 155.797 170.098-8.796-1.805-14.984-4.438-21.336-7.004 8.266 3.05 17.258 5.703 26.274 7.41 3.75.254 7.527.39 11.34.398-.582-7.359-1.192-37.469-1.543-67.082-.078-6.597-.164-13.176-.215-19.469-.231-27.711-.313-55.988-.336-76.851a11504.1 11504.1 0 0 1-.004-31.106v-.093H248.992" id="path330" fill="url(#radialGradient328)"/></g></g><path d="M80.313 254.84c-.782.828-1.044 1.383-1.079 1.531l-.054.16c1.78 94.399 80.179 170.438 173.332 170.438-6.453-.364-11.789-1.086-16.403-2.031-86.781-8.399-154.96-81.352-155.797-170.098m160.735 170.504c3.836.726 7.676 1.281 11.465 1.625a17.157 17.157 0 0 1-.125-1.227 173.06 173.06 0 0 1-11.34-.398" id="path332" fill="#cfaa05"/><path d="M214.773 417.934c6.352 2.566 12.54 5.199 21.336 7.004 4.614.945 9.95 1.667 16.403 2.031a120.336 120.336 0 0 1-11.465-1.625c-9.016-1.707-18.008-4.36-26.274-7.41" id="path334" fill="#1d1600"/><g id="g336"><g id="g338" clip-path="url(#clipPath342)"><path d="M250.289 231.234a11504.1 11504.1 0 0 0 .004 31.106c-.02-15.692-.008-27.192-.004-31.106" id="path350" fill="url(#radialGradient348)"/></g></g><g id="g352"><g id="g354" clip-path="url(#clipPath358)"><path d="M248.992 231.141h-.031.031m0 0h.649-.649M210.363 232.098h-.031.031m-3.535.14l-.844.035c-31.402 1.301-52.761 3.11-79.043 7.582 26.282-4.472 47.641-6.281 79.043-7.582l.844-.035" id="path366" fill="url(#radialGradient364)"/></g></g><path d="M335.73 100.469c-9.82-5.512-11.726-5.653-24.937-11.09-3.668-1.512-7.098-2.39-10.879-3.461 23.422 6.309 55.457 32.547 61.09 38.93-2.848-6.313-4.988-10.508-11.895-16.086-1.914-1.547-10.191-6.504-13.379-8.293" id="path368" fill="#231f20"/><path d="M100.031 245.484c-7.234 1.778-12.535 4.278-16.203 6.579 1.922 62.859 36.852 118.628 87.719 149.167-12.024-10.675-17.371-17.039-23.438-31.468-28.55-32.785-46.773-76.883-48.078-124.278" id="path370" fill="#231f20"/><path d="M171.711 401.332c12.75 9.188 20 15.887 40.195 20.734 14.16 3.399 26.578 4.875 40.606 4.903-29.282-1.254-56.809-11.266-80.801-25.637" id="path372" fill="#231f20"/><path d="M162.434 235.074a482.63 482.63 0 0 0-35.493 4.781c.704 31.504 7.293 61.696 18.704 88.442 4.41-17.563 8.156-27.008 20.554-47.828a340.236 340.236 0 0 1-3.765-45.395" id="path374" fill="#231f20"/><path d="M250.859 358.66a6574.5 6574.5 0 0 1-.379-53.969c-.101-15.046-.156-25.933-.156-28.043-17.082 17.918-26.238 27.973-38.722 43.852 8.394 54.023 23.554 96.688 40.91 106.469-.625-5.129-1.282-35.813-1.653-68.309" id="path376" fill="#231f20"/><path d="M189.879 360.734c-10.914-23.027-19.078-50.605-23.574-80.238 10.617-15.797 17.179-25.016 38.34-48.16.23 31.059 2.757 61.184 6.972 88.289-12.715 17.316-16.75 25.559-21.738 40.109" id="path378" fill="#231f20"/><path d="M419.918 251.547c.062-1.918.098-3.832.098-5.754.097-61.422-29.871-112.52-76.821-140.805l-1.226-.937c22.039 13.562 49.918 36.449 67.648 74.332 19.004 37.371 16.926 78.672 16.926 78.672-.941-1.68-3.727-3.828-6.625-5.508" id="path380" fill="#231f20"/><path d="M214.773 417.934c-25.343-9.926-48.156-26.946-66.632-48.149-5.047-15.801-5.039-24.605-2.496-41.488 11.273 26.34 27.003 49.148 45.621 66.203 5.738 9.938 9.32 15.883 23.507 23.434" id="path382" fill="#231f20"/><path d="M189.82 360.605c-3.132 14.18-3.394 21.415 1.371 33.77 18.133 16.691 39.047 29.113 61.321 32.594-24.383-6.535-46.481-32.11-62.692-66.364" id="path384" fill="#231f20"/><path d="M59.594 366.688l-14.242 7.074c-3.207 1.59-3.797 3.301-2.239 6.535l.219.461-1.926.93-6.605-13.317 1.898-.937.242.421c1.446 2.594 2.332 3.426 3.649 3.426.957 0 2.238-.437 4.418-1.508l12.305-6.121c9.085-4.511 7.878-11.746 5.265-17.023-2.535-5.094-6.16-7.781-10.496-7.781-1.96 0-4.043.543-6.207 1.617l-14.688 7.285c-2.625 1.305-2.972 2.512-1.546 5.398l.457.934-1.918.945-7.188-14.488 1.918-.937.227.445c1.234 2.398 1.965 3.164 3.008 3.164.601 0 1.406-.254 2.52-.809l15.425-7.66c2.328-1.152 4.695-1.738 7.031-1.738 5.961 0 11.117 3.773 14.52 10.633 5.89 11.851.742 19.679-6.047 23.051" id="path386" fill="#231f20"/><path d="M77.816 422.75c-.07.816.586 1.973 2.188 3.863l.332.395-1.649 1.363-9.53-11.308 1.609-1.395.336.379c1.894 2.133 2.894 2.891 3.82 2.891.66 0 1.418-.391 2.523-1.325l16.973-14.3-38.969-2.524-6.433-7.605 1.617-1.383.328.363c1.246 1.359 2.434 2.176 3.84 2.602l21.957-18.512c1.66-1.41 2.168-2.762-.156-5.516l-.473-.57 1.625-1.387 9.473 11.258-1.645 1.375-.324-.391c-1.809-2.136-2.852-2.929-3.852-2.929-.8 0-1.722.504-3.191 1.742l-18.36 15.461 43.051 2.707 1.465 1.73-25.543 21.528-1.012 1.488" id="path388" fill="#231f20"/><path d="M123.094 418.727c-1.406-1.164-2.41-1.684-3.246-1.684-.875 0-1.707.582-2.883 1.992l-15.961 19.223c-2.348 2.84-1.899 3.976.723 6.168l.394.324-1.359 1.652-11.805-9.804 1.352-1.625.39.285c1.246.926 2.125 1.336 2.852 1.336.808 0 1.57-.508 2.55-1.699l16.047-19.317c2.383-2.863 2.364-3.758-.109-6.012l-.359-.324 1.347-1.64 11.817 9.796-1.356 1.653-.394-.324" id="path390" fill="#231f20"/><path d="M145.902 472.727l.442.261-1.094 1.844-12.656-7.426 1.054-1.867.45.266c1.859 1.09 3.129 1.597 3.996 1.597l1.289-.789c.344-.582.637-1.683.918-3.476l4.062-24.422-21.472 16.633-1.168 1.699c.043.961 1.32 2.211 3.898 3.793l.43.265-1.09 1.836-14.867-8.722 1.094-1.844.437.262c1.27.746 2.098 1.054 2.836 1.054 1.066 0 2.105-.671 3.894-2.078l27.438-21.25 3.152 1.84-5.472 33.606c-.618 3.75 0 5.492 2.429 6.918" id="path392" fill="#231f20"/><path d="M193.859 462.984l.016-.382c.266-5.332-.477-6.829-3.945-8.024l-8.594-2.945-1.527-.34c-.707 0-1.301.348-1.879 2.043l-3.946 11.383 8.938 3.082 1.668.375c.898 0 1.754-.543 3.027-3.199l.199-.407 1.965.66-3.988 11.555-1.977-.668.118-.453c.804-3.269.136-4.148-1.473-4.699l-9.484-3.274-4.395 12.747 11.266 3.894 1.164.219c.961 0 2.316-.488 4.32-4.301l.207-.391 1.941.688-3.511 8.531-27.688-9.555.692-2.027 1.715.59c.972.336 1.753.5 2.386.5 1.414 0 2.16-.781 2.949-3.106l8.118-23.523c.593-1.727.683-2.687.32-3.43-.422-.855-1.547-1.558-3.672-2.285l-2.043-.719.703-2.011 30.508 10.508-2.191 9.605-1.907-.641" id="path394" fill="#231f20"/><path d="M226.52 486.141c.347-2.918-.161-5.262-1.508-6.969-1.496-1.895-4.071-3.074-7.664-3.492l-.782-.098-2.336-.223-2.171 18.282c.808.168 1.476.25 2.402.359 7.488.891 11.316-1.566 12.059-7.859zm24.089-22.723c-4.105-.234-7.699 1.125-11.89 4.422l-5.188 4.082c-2.578 2.043-4.48 3.48-6.625 4.828 4.289 2.188 6.602 6.145 6.082 10.531-.8 6.817-7.34 10.199-17.488 8.981-3.801-.434-4.988-.633-7.387-1.043l-2.383-.414c-1.937-.336-3.949-.688-4.91-.797l-.5-.059.231-2.129 1.804.203 1.231.086c1.82 0 2.758-.57 3.148-3.789l2.93-24.652c.441-3.715-.527-4.469-3.66-4.852l-1.504-.183.262-2.11 17.582 2.094-.266 2.11-1.844-.204-1.371-.097c-1.847 0-2.918.554-3.269 3.476l-1.114 9.348c.731.035 1.438.086 2.485.223 1.523.172 2.437.332 3.824.57h.004c1.078-.582 3.238-1.875 6.406-4.371l4.328-3.414c5.895-4.637 8.891-6.633 19.313-4.903l.469.075-.211 2.015-.489-.027" id="path396" fill="#231f20"/><path d="M272.57 482.191c-4.05 2.977-7.871 5.793-7.59 9.399.231 2.976 2.84 4.82 6.465 4.543 3.895-.309 7.227-3.172 8.473-7.301l.102-.328 1.941-.168-.496 8.555-1.625.156-.176-.203-.562-.344h-.133l-2.008.641c-1.16.519-2.758 1.23-5.848 1.476-6.289.488-11.277-3.101-11.675-8.179-.442-5.672 4.566-9.415 9.402-13.028 4.156-3.105 8.086-6.043 7.797-9.789-.348-4.336-4.485-6.101-8.114-5.824-4.589.359-8.05 3.742-8.82 8.629l-.062.398-2.09.153.59-10.051 1.695-.129.168.203.809.375h.003l1.622-.527c1.667-.606 4.199-1.524 6.41-1.696l1.316-.054h.012c6.629 0 11.566 3.957 11.996 9.617.476 6.047-4.875 9.996-9.602 13.476" id="path398" fill="#231f20"/><path d="M297.496 492.297l.461-.129c3.02-.828 3.648-1.75 3.051-4.48l-5.344-24.543c-.699-3.219-1.406-3.793-3.051-3.793l-1.761.179-.485.078-.441-2.078 14.98-3.246.465 2.094-.504.105c-1.883.411-2.929.911-3.398 1.645-.442.68-.469 1.68-.106 3.359l5.309 24.414c.648 2.957 1.586 3.516 3.094 3.516.578 0 1.285-.098 2.218-.297l.493-.105.461 2.086-15.004 3.265-.438-2.07" id="path400" fill="#231f20"/><path d="M358.246 475.781l-.394-.16-1.004.234-26.364 10.438-.906.535-.152.391.094.418-1.875.746-4.875-9.438 1.918-.773.222.371c1.981 3.285 3.274 4.562 4.594 4.562l1.195-.265 9.063-3.602-10.551-26.593c-.859-2.165-1.711-2.614-2.723-2.614-.648 0-1.476.211-2.535.641l-2.5.961-.793-1.969 18.223-7.23.773 1.988-2.48 1.004c-1.625.637-2.492 1.265-2.821 2.031-.308.699-.199 1.629.356 3.016l10.559 26.593 9.05-3.582c1.774-.714 2.383-1.906 1.285-7.093l-.093-.422 1.91-.746 2.926 10.207-1.875.715-.227-.364" id="path402" fill="#231f20"/><path d="M393.402 451.852l.426-.286c1.574-1.046 2.324-1.855 2.285-2.472-.035-.547-.738-1.16-2.074-1.813l-14.027-6.797.246 16.516c.023 2.469.578 2.469.871 2.469.601 0 1.601-.469 3.059-1.43l.417-.277 1.196 1.761-13.887 9.286-1.187-1.77.406-.285c2.871-2.035 3.574-3.262 3.445-8.613l-.387-19.309-4.515-6.781c-1.641-2.457-2.942-2.535-5.574-.77l-1.375.922-1.149-1.797 14.289-9.562 1.199 1.754-1.046.73c-1.418.945-2.157 1.777-2.325 2.625-.156.785.141 1.684.965 2.902l4.817 7.231 17.234 8.293c1.613.773 2.805 1.101 3.988 1.101 1.305 0 2.653-.417 4.239-1.316l.41-.234 1.179 1.75-11.929 7.976-1.196-1.804" id="path404" fill="#231f20"/><path d="M450.449 389.457c-.629-4.66-3.398-9.078-7.812-12.434-3.485-2.66-7.465-4.125-11.199-4.125-4.059 0-7.555 1.766-10.098 5.102-5.684 7.457-3.731 17.855 4.558 24.176 3.231 2.457 7.368 3.926 11.071 3.926 4.156 0 7.726-1.801 10.32-5.207 2.609-3.415 3.703-7.375 3.16-11.438zm-.25 11.738c-4.547 5.965-10.914 9.387-17.476 9.387-4.336 0-8.578-1.484-12.258-4.293-8.586-6.551-9.387-18.941-1.867-28.82 4.257-5.582 10.507-8.785 17.132-8.785h.004c4.454 0 8.75 1.488 12.446 4.293 8.336 6.375 9.226 18.769 2.019 28.218" id="path406" fill="#231f20"/><path d="M469.895 369.871l-1.934-.906.215-.465c1.531-3.281.558-4.078-2.848-5.695l-20.851-9.95c-1.895-.91-2.985-1.277-3.762-1.277-.965 0-1.602.598-2.641 2.453l-.234.418-1.899-.902 6.594-13.84 1.961.895-.23.468c-.895 1.864-1.164 3.055-.875 3.883.254.723.957 1.293 2.515 2.031l11.18 5.34 4.48-9.383c1.008-2.117.981-3.484-2.003-5.039l-.438-.226.867-1.805 10.281 4.918-.855 1.777-.445-.171c-2.125-.84-3.41-.504-4.235 1.214l-4.804 10.067 11.582 5.512 4.613-9.645c1.375-2.91.867-4.371-2.031-5.809l-.45-.222.864-1.824 7.203 3.433-11.82 24.75" id="path408" fill="#231f20"/><path d="M47.586 105.863L68.8 144.984l-.086.129-28.633-18.269c-3.242-2.071-2.223-4.871-.363-7.707l-1.153-.844-9.214 12.691 1.18.829c3.218-4.45 4.59-4.282 10.355-.555l24.781 15.73c4.203 2.672 5.21 3.594 2.715 7.551l1.082.805 6.687-9.211-20.054-36.985 41.332 7.661 6.496-8.957-1.082-.817c-2.414 2.828-3.328 3.938-5.309 2.305L71.328 87.371c-5.328-4.45-4.976-4.93-1.758-9.375l-1.164-.855-11.36 15.683 1.161.832c2.074-2.87 4.906-5.101 7.953-2.512l26.028 21.598-.075.113-43.511-8.41-1.016 1.418" id="path410" fill="#231f20"/><path d="M121.277 61.688l-4.07-14.055c-.195-.781-.434-2.012-1.144-2.965-1.262-1.707-2.801-1.137-6.254 1.414l-1.579 1.164-.847-1.144 16.68-12.282.839 1.157c-3.015 2.21-3.851 3.761-2.691 7.875l12.074 43.004-5.277 3.875-.434-1.735L95.34 65.973c-5.8-3.856-6.977-4.035-10.95-1.184l-.855-1.172 14.008-10.281.852 1.14-.973.715c-3.32 2.434-4.461 4.211-3.266 5.848.633.852 2.758 2.11 4.04 2.942l10.519 6.93zm.934 3.421l-10.504 7.72 15.551 10.347z" id="path412" fill="#231f20"/><path d="M160.852 38.098c1.121-.461 2.007-.864 3.582-1.414 1.91-.688 3.074-1.012 4.871-1.567 1.297-1.746 3.05-4.672 5.066-8.922l3.027-6.347c4.082-8.535 6.317-12.38 18.934-16.23l.453 1.284c-5.336 2.293-8.746 6.465-11.433 12.125l-3.629 7.61c-2.145 4.504-3.567 7.265-5.465 10.25 6.418-.36 11.637 2.832 13.519 8.14 2.571 7.258-1.41 14.727-14.547 19.395-4.613 1.64-6.062 2.066-9.007 2.957-2.969.89-7.407 2.133-9.094 2.75l-.492-1.36 1.558-.546c4.129-1.47 4.887-3.16 3.313-7.57l-10.598-29.88c-1.691-4.75-3.574-5.359-7.765-3.879l-1.204.434-.484-1.36 20.09-7.12.473 1.34-1.637.585c-3.969 1.414-5.293 3.09-3.785 7.34zm8.746 24.648c1.316-.324 2.242-.637 3.593-1.105 10.93-3.91 12.11-10.063 9.758-16.664-3.015-8.516-9.39-10-17.258-7.22-1.644.567-2.726.884-4.359 1.7l8.266 23.29" id="path414" fill="#231f20"/><path d="M246.297 39.695c2.773 3.926 1.441 5.328-3.359 5.727l.117 1.43 16.98-1.45-.137-1.414c-5.128.07-7.488-1.789-9.886-5.129l-14.246-20.05-.965-11.239c-.348-3.976.953-5.68 5.539-6.066l.969-.082L241.18 0l-20.637 1.75.129 1.426 1.402-.121c4.676-.375 6.18 1.218 6.481 4.89l.902 10.578-11.578 22.008c-3.18 6.09-4.824 7.282-9.688 7.864l.122 1.43 19.968-1.727-.133-1.418c-5.847.52-6.335-.91-4.375-4.543l10.426-19.555 12.098 17.113" id="path416" fill="#231f20"/><path d="M308.898 5.879L275.703.254l-.226 1.414 2.437.398c3.422.594 4.5 1.926 3.856 5.696l-5.555 32.914c-.672 3.933-2.137 5.36-6.817 4.57l-1.031-.176-.238 1.414 21.91 3.707.234-1.414-2.738-.476c-4.844-.809-6.008-1.543-5.23-6.157l5.781-34.242c.328-1.976 1.285-2.609 3.441-2.226l10.911 1.828c4.375.762 5.429 2.68 9.011 9.93l1.34.238-3.891-11.793" id="path418" fill="#231f20"/><path d="M347.309 40.926l9.945-10.7c.578-.59 1.496-1.425 1.961-2.542.801-1.938-.465-2.973-4.434-4.625l-1.812-.746.547-1.317 19.117 7.969-.543 1.332c-3.488-1.457-5.235-1.36-8.156 1.719L333.293 64.53l-6.051-2.523 1.27-1.274 1.785-39.804c.285-6.992-.145-8.074-4.641-10.032l.543-1.312 16.063 6.703-.551 1.328-1.117-.484c-3.809-1.578-5.914-1.656-6.703.219-.399.972-.375 3.457-.434 4.972l-.531 12.598zm-2.461 2.57l-12.016-5.023-.859 18.648z" id="path420" fill="#231f20"/><path d="M428.781 70.11l-56.066 6.628 20.598-24.914c3.433-4.168 5.085-4.277 10.031-.21l.898-1.098L390.77 39.39l-.899 1.109.231.187c3.593 2.973 3.753 5.157 1.539 7.817l-23.582 28.562c-2.118-.164-4.012-.937-6.082-2.57l-.934 1.094 9.121 7.539 50.91-5.906-19.097 23.121c-2.922 3.527-4.497 3.285-9.247-.422l-.914 1.105 13.594 11.227.918-1.098c-4.367-3.605-4.652-5.129-2.793-7.398l26.774-32.39-1.528-1.259" id="path422" fill="#231f20"/><path d="M447.035 101.742c3.66-2.375 3.598-4.554 1.387-7.953l-.695-1.094 1.203-.773 13.086 20.25c10.336 16.004 3.675 30.805-5.864 36.973-10.445 6.722-23.726 4.816-34.511-11.868a362.948 362.948 0 0 1-6.676-10.769c-2.117-3.559-3.996-6.735-5.379-9.16l1.207-.778.797 1.274c2.426 3.726 4.129 4.148 8.242 1.496zm-29.262 26.363c.43.813 1.348 2.622 3.036 5.219 5.714 8.864 10.836 11.91 15.621 12.938 6.144 1.328 12.199-.688 16.883-3.727 6.515-4.199 9.503-10.269 10.253-14.074 1.399-6.449.309-10.781-5.164-19.242-3.226-5.008-4.242-4.633-6.839-2.938l-33.79 21.824" id="path424" fill="#231f20"/><path d="M11.078 265.953v-32.254c0-1.687.352-2.129 2.059-2.129h3.132v-1.027H2.282v1.027H5.29c1.785 0 2.113.512 2.113 2.172v27.766c-1.78-1.574-4.906-3.621-6.965-4.57l-.437.781c3.234 2.176 7.84 6.351 9.168 8.234h1.91" id="path426" fill="#231f20"/><path d="M42.363 257.996c0-3.168-1.558-5.734-4.656-7.664-7.184 3.047-8.851 5.27-8.851 8.332 0 3.504 2.98 6.258 6.808 6.258 3.871 0 6.7-2.926 6.7-6.926zm3.352-.066c0 4.441-4.461 8.023-10.047 8.023-5.496 0-10.098-4.129-10.098-9.015 0-3.786 2.399-6.606 7.594-8.946-5.445-2.172-8.094-5.219-8.094-9.117 0-5.059 4.758-9.125 10.782-9.125 6.207 0 11 4.445 11 10.227 0 4.285-2.508 7.226-8.368 9.836 4.883 1.968 7.23 4.574 7.23 8.117zm-2.422-19.496c0-4.352-3.203-7.688-7.383-7.688-4.246 0-7.367 3.5-7.367 8.227 0 3.625 1.898 6.406 5.695 8.461 6.485-2.938 9.055-5.286 9.055-9" id="path428" fill="#231f20"/><path d="M459.199 261.969h13.172c.988 0 1.332.211 1.617.707h1.059l-.625-4.293h-14.063l-.429-9.977c1.715.946 3.718 1.379 5.984 1.379 6.231 0 11.399-5.187 11.399-11.453 0-6.754-5.602-11.867-13.051-11.867-4.446 0-8.11 1.555-8.11 3.5 0 .941.817 1.723 1.817 1.723 3 0 4.062-3.907 7.562-3.907 4.106 0 7.621 4.301 7.621 9.367 0 5.137-3.515 8.957-8.3 8.957-2.036 0-4.207-.816-5.875-2.242l-.559.399.781 17.707" id="path430" fill="#231f20"/><path d="M501.887 262.676c-11.633-3.278-18.653-11.446-18.653-21.738 0-8.543 4.786-14.473 11.657-14.473 5.937 0 10.832 5.105 10.832 11.226 0 5.688-4.399 10.25-9.852 10.25-2.73 0-4.898-.875-7.898-3.222 1.215 8.129 5.84 13.578 14.507 17.14zm-.336-25.481c0-6.304-2.664-9.82-6.567-9.82-3.515 0-7.578 3.066-7.578 12.441 0 1.891.11 2.672.274 3.454 3.406 2.734 5.91 3.347 7.351 3.347 3.742 0 6.52-3.461 6.52-9.422" id="path432" fill="#231f20"/></g></g></g><style id="style6209"></style></svg>