<?xml version="1.0" standalone="no"?>
<!DOCTYPE svg PUBLIC "-//W3C//DTD SVG 20010904//EN"
 "http://www.w3.org/TR/2001/REC-SVG-20010904/DTD/svg10.dtd">
<svg version="1.0" xmlns="http://www.w3.org/2000/svg"
 width="544.000000pt" height="544.000000pt" viewBox="0 0 544.000000 544.000000"
 preserveAspectRatio="xMidYMid meet">
<metadata>
Created by potrace 1.11, written by Peter Selinger 2001-2013
</metadata>
<g transform="translate(0.000000,544.000000) scale(0.100000,-0.100000)"
fill="#000000" stroke="none">
<path d="M4811 3739 c-104 -30 -175 -120 -187 -237 l-6 -58 -272 -54 c-149
-29 -275 -54 -281 -56 -5 -1 -23 25 -40 59 -92 188 -357 195 -457 12 -15 -28
-30 -69 -34 -91 l-6 -41 -101 -7 c-56 -3 -181 -9 -278 -12 l-176 -7 -6 47 c-9
64 -38 117 -91 163 -135 119 -349 66 -412 -103 -9 -27 -19 -50 -20 -52 -1 -2
-126 25 -278 60 l-276 63 0 35 c0 75 -29 142 -83 195 -81 79 -192 98 -292 51
-87 -40 -139 -115 -151 -219 l-6 -55 -282 -56 c-154 -31 -286 -56 -293 -56 -6
0 -16 14 -22 31 -47 134 -224 200 -359 133 -97 -48 -147 -135 -140 -243 7
-110 57 -183 157 -229 44 -20 64 -24 115 -20 138 11 233 107 245 248 l6 64
285 58 c157 31 287 57 290 57 3 1 14 -20 24 -46 75 -182 320 -218 445 -66 17
21 36 52 42 70 6 18 16 33 22 33 7 -1 133 -29 281 -63 l269 -62 4 -45 c12
-145 138 -250 283 -237 114 10 207 90 234 199 8 34 16 36 266 43 113 3 226 8
252 11 l46 6 17 -57 c20 -69 80 -139 144 -168 62 -27 155 -26 214 2 92 45 167
167 155 251 -3 23 0 30 16 34 29 7 541 106 549 106 3 0 11 -16 18 -37 16 -50
85 -122 138 -146 29 -12 66 -19 106 -19 79 0 138 25 192 85 79 86 91 201 32
305 -60 105 -181 154 -298 121z m140 -50 c92 -31 157 -128 146 -220 -11 -92
-68 -160 -155 -185 -113 -33 -229 32 -262 147 -15 53 -12 90 14 145 46 99 155
147 257 113z m-3245 -20 c38 -12 98 -73 119 -121 29 -72 15 -151 -40 -215 -67
-79 -189 -96 -275 -39 -160 106 -110 349 80 386 36 7 63 5 116 -11z m2155
-190 c77 -26 131 -91 145 -176 22 -137 -120 -267 -254 -233 -169 42 -227 236
-106 357 59 59 138 78 215 52z m-3241 -43 c119 -58 147 -220 57 -323 -122
-139 -352 -65 -365 117 -9 121 55 209 168 230 47 9 86 2 140 -24z m2173 20
c103 -43 155 -178 108 -281 -71 -157 -290 -168 -377 -19 -62 105 -21 238 91
297 37 20 135 22 178 3z"/>
<path d="M30 2275 l0 -615 505 0 505 0 0 615 0 615 -505 0 -505 0 0 -615z
m572 394 c131 -27 243 -113 296 -227 25 -52 27 -68 27 -177 0 -109 -2 -125
-27 -178 -33 -70 -111 -155 -177 -191 -94 -51 -184 -66 -392 -66 l-188 0 24
36 25 37 0 362 c0 351 -1 363 -21 389 l-20 26 200 0 c110 0 224 -5 253 -11z"/>
<path d="M353 2584 l-23 -5 0 -323 0 -323 48 -7 c116 -14 265 35 332 111 53
60 74 128 73 228 -2 145 -58 241 -171 293 -44 20 -74 26 -146 28 -50 1 -101 0
-113 -2z"/>
<path d="M1120 2275 l0 -615 500 0 500 0 0 615 0 615 -500 0 -500 0 0 -615z
m573 393 c128 -322 295 -723 313 -755 13 -22 36 -50 51 -62 l28 -20 -135 -1
c-124 0 -133 1 -112 16 12 8 22 25 22 37 0 11 -21 76 -47 144 l-47 123 -165
-2 -166 -3 -42 -115 c-48 -132 -51 -152 -23 -180 l20 -20 -116 0 -116 0 32 26
c17 15 39 43 50 64 39 77 280 691 280 715 0 13 -8 29 -17 34 -13 8 10 10 83
11 72 0 103 -4 107 -12z"/>
<path d="M1537 2412 c-32 -81 -57 -150 -57 -154 0 -5 54 -8 120 -8 66 0 120 3
120 8 0 14 -113 302 -119 302 -3 0 -32 -66 -64 -148z"/>
<path d="M2210 2275 l0 -615 503 2 502 3 3 613 2 612 -505 0 -505 0 0 -615z
m598 333 c17 -40 83 -203 147 -363 126 -313 150 -362 192 -394 l28 -20 -135
-1 c-124 0 -133 1 -112 16 12 8 22 25 22 36 0 12 -21 77 -46 145 l-47 123
-165 -2 -165 -3 -43 -115 c-50 -133 -52 -152 -22 -180 l22 -20 -115 0 -116 0
40 43 c35 36 60 91 178 387 76 190 138 356 138 371 1 14 -4 30 -11 37 -9 9 9
12 84 12 l96 0 30 -72z"/>
<path d="M2627 2413 c-31 -82 -57 -151 -57 -155 0 -5 56 -8 124 -8 l124 0 -61
155 c-33 85 -63 155 -66 155 -3 0 -32 -66 -64 -147z"/>
<path d="M3290 2275 l0 -615 505 0 505 0 0 615 0 615 -505 0 -505 0 0 -615z
m758 431 l57 -11 3 -74 c2 -57 0 -72 -10 -68 -128 56 -145 61 -223 61 -102 1
-167 -26 -228 -94 -53 -59 -77 -128 -77 -224 0 -291 259 -438 539 -306 61 29
62 29 55 7 -4 -12 -19 -46 -33 -76 -31 -66 -62 -80 -191 -88 -156 -9 -298 36
-393 126 -87 83 -126 182 -127 323 0 180 89 327 244 399 102 48 227 56 384 25z"/>
<path d="M4380 2275 l0 -615 503 2 502 3 3 613 2 612 -505 0 -505 0 0 -615z
m693 433 l47 -10 0 -69 c0 -38 -3 -69 -6 -69 -3 0 -19 9 -34 20 -110 78 -297
61 -326 -30 -26 -79 14 -124 184 -206 146 -70 196 -104 227 -158 33 -57 33
-116 -1 -184 -68 -136 -249 -199 -455 -158 -46 10 -88 21 -92 25 -8 8 -36 113
-37 137 0 7 35 -6 78 -27 85 -43 185 -63 242 -50 122 28 174 117 117 202 -17
26 -55 51 -170 109 -213 107 -254 155 -245 281 5 73 41 122 119 161 90 46 214
56 352 26z"/>
</g>
</svg>
